:SAMPLES-PER-SECOND 30
:FRAME-RANGE 1-1700
:FULLY-SPECIFIED
:DEGREES
1488
root  -5.22209 39.5429 -24.026 15.5101 32.8839 -6.41388
RightUpLeg  -44.8844 -17.4578 10.0522
RightLeg  31.1294 -4.86664 -3.39858
RightFoot  -4.00457 -0.734877 11.0033
RightToes  -1.16417e-010 0 -3.6325e-017
Spine  22.5477 1.17844 -5.58286
Spine1  3.25493 3.43623 -11.1486
HEad  -5.74364 -0.423894 -9.96665
LeftShoulder1  1.4876 -0.314727 -32.9051
LeftArm  -9.96964 12.9687 -29.5369
LeftForeArm  8.7797 4.11579 -16.8189
LeftHand  0.282473 2.54023 -12.365
RightShoulder  11.6349 19.5217 44.0339
RightArm  -5.25306 7.07453 15.2155
RightForeArm  21.5221 -7.08815 15.4561
RightHand  -0.0786389 0.0526414 -1.69435
LeftUpLeg  -23.7412 22.2274 10.2227
LeftLeg  16.4316 2.6236 -2.68544
LeftFoot  -8.11299 0.360323 -11.0394
LeftToes  1.03528e-008 1.55373e-010 -2.26046e-010
1489
root  -4.60177 39.5345 -22.7309 15.7792 31.4347 -5.32257
RightUpLeg  -43.585 -20.1003 12.6363
RightLeg  16.2024 -4.85114 -1.79234
RightFoot  -2.34715 -0.916497 11.4131
RightToes  -1.16417e-010 0 -3.6325e-017
Spine  21.6408 0.705853 -5.67119
Spine1  2.95519 2.90584 -10.6653
HEad  -6.60272 0.56431 -9.31201
LeftShoulder1  1.47141 -0.267949 -32.9581
LeftArm  -8.85381 13.4116 -30.544
LeftForeArm  9.80529 4.50018 -16.9708
LeftHand  0.269828 2.58318 -12.0389
RightShoulder  10.1581 17.2724 42.5564
RightArm  -1.84734 4.8888 14.1656
RightForeArm  21.9105 -3.10935 15.8325
RightHand  -0.0753699 0.525483 -1.54311
LeftUpLeg  -18.7871 18.6535 11.6461
LeftLeg  14.0229 7.10131 -2.52204
LeftFoot  -9.16938 0.295386 -12.6527
LeftToes  1.03528e-008 1.55373e-010 -2.26046e-010
1490
root  -4.00994 39.2967 -21.1938 16.0796 30.6589 -3.3844
RightUpLeg  -36.2006 -5.6041 -2.20633
RightLeg  -1.50425 -28.1774 7.46814
RightFoot  -0.86486 -1.03748 11.2181
RightToes  -1.16417e-010 0 -3.6325e-017
Spine  20.3197 0.0361477 -6.54794
Spine1  2.85285 2.2568 -10.0875
HEad  -7.51921 1.69484 -8.68195
LeftShoulder1  1.45626 -0.218802 -33.0647
LeftArm  -7.45302 12.6667 -30.5133
LeftForeArm  11.3253 4.26392 -17.086
LeftHand  0.288001 2.36775 -11.8153
RightShoulder  8.87864 15.1807 41.3002
RightArm  3.15514 2.88807 13.567
RightForeArm  19.5382 1.33951 15.8846
RightHand  -0.065962 0.766058 -1.32852
LeftUpLeg  -14.3106 16.1825 11.7802
LeftLeg  12.9537 9.54146 -2.49222
LeftFoot  -10.6417 0.151253 -14.3116
LeftToes  1.03528e-008 1.55373e-010 -2.26046e-010
1491
root  -3.44882 38.8126 -19.4077 16.3276 30.9153 -0.619629
RightUpLeg  -34.4515 -5.2784 -3.93209
RightLeg  -8.51933 -29.841 9.74576
RightFoot  -3.34323 -0.974065 13.5468
RightToes  -1.16417e-010 0 -3.6325e-017
Spine  18.3473 -0.889202 -7.99646
Spine1  3.02758 1.43197 -9.47047
HEad  -8.3053 2.46203 -7.85541
LeftShoulder1  1.43234 -0.127202 -33.3891
LeftArm  -6.74703 11.0899 -29.3036
LeftForeArm  13.2414 3.2508 -17.0055
LeftHand  0.289669 2.14043 -10.9795
RightShoulder  7.8333 13.2672 40.5575
RightArm  8.97476 0.951519 13.1528
RightForeArm  14.858 5.5225 15.3957
RightHand  -0.0349641 0.969544 -0.7376
LeftUpLeg  -10.4519 15.4785 11.2803
LeftLeg  14.0767 8.54422 -2.63797
LeftFoot  -12.7766 -0.135029 -16.7559
LeftToes  1.03528e-008 1.55373e-010 -2.26046e-010
1492
root  -2.9236 38.45 -17.6203 16.333 31.5017 1.74347
RightUpLeg  -31.8651 -4.70271 -4.7396
RightLeg  -10.9528 -27.5522 8.64775
RightFoot  -3.2243 -0.98842 13.5604
RightToes  -1.16417e-010 0 -3.6325e-017
Spine  17.1628 -1.1311 -7.89453
Spine1  3.60534 0.808127 -8.62104
HEad  -8.99837 2.02331 -6.22536
LeftShoulder1  1.33056 0.159061 -33.7149
LeftArm  -5.63728 9.03265 -27.3962
LeftForeArm  14.7077 0.0209682 -16.6589
LeftHand  0.327203 1.53105 -10.2408
RightShoulder  6.74822 11.0292 40.3198
RightArm  13.5257 -1.31491 13.1034
RightForeArm  10.4947 8.45556 14.6312
RightHand  -0.011223 1.06191 -0.307174
LeftUpLeg  -6.31202 15.9969 11.315
LeftLeg  14.3586 5.76826 -3.02454
LeftFoot  -13.4654 -0.289567 -19.768
LeftToes  1.03528e-008 1.55373e-010 -2.26046e-010
1493
root  -2.49288 38.4132 -15.9779 15.7554 32.026 2.34241
RightUpLeg  -30.572 -5.12025 -4.01673
RightLeg  -10.0733 -27.7305 8.39756
RightFoot  10.7912 -0.412181 2.4875
RightToes  -1.16417e-010 0 -3.6325e-017
Spine  18.1737 -0.671763 -4.26128
Spine1  3.24224 0.73064 -8.2051
HEad  -10.3048 0.380044 -4.22735
LeftShoulder1  1.20488 0.48457 -33.8343
LeftArm  0.0944041 7.50182 -25.8784
LeftForeArm  9.86715 -6.99418 -15.3351
LeftHand  0.331604 1.01899 -9.05848
RightShoulder  5.67976 8.62018 40.7292
RightArm  14.0282 -3.88302 13.194
RightForeArm  9.58879 8.62984 14.5849
RightHand  -0.0111611 1.18327 -0.31204
LeftUpLeg  -2.29236 18.9293 12.6653
LeftLeg  13.2103 0.874112 -2.71292
LeftFoot  -11.6162 0.011161 -23.7987
LeftToes  1.03528e-008 1.55373e-010 -2.26046e-010
1494
root  -2.18674 38.4028 -14.4213 14.0552 31.1943 0.281311
RightUpLeg  -33.5652 -5.26632 -1.42239
RightLeg  1.17856 -25.6731 5.21294
RightFoot  13.2212 1.44322 -6.19939
RightToes  -1.16417e-010 0 -3.6325e-017
Spine  20.2429 -0.102318 1.93502
Spine1  1.47972 2.09546 -9.5728
HEad  -13.3247 -1.17213 -3.15178
LeftShoulder1  1.1451 0.612143 -33.5287
LeftArm  2.36602 5.26138 -26.7294
LeftForeArm  -0.244946 -12.4607 -12.9254
LeftHand  0.316596 1.12649 -8.8962
RightShoulder  5.84587 8.57925 42.1689
RightArm  8.49693 -5.66067 12.8282
RightForeArm  11.9272 4.76757 15.6963
RightHand  -0.01164 1.15135 -0.319011
LeftUpLeg  -0.913604 23.9704 16.1753
LeftLeg  16.6888 -4.18987 -1.35319
LeftFoot  -8.74868 0.711595 -28.5965
LeftToes  1.03528e-008 1.55373e-010 -2.26046e-010
1495
root  -1.90664 38.3348 -12.9261 12.1606 29.5455 -2.26807
RightUpLeg  -34.4382 -7.24218 2.56696
RightLeg  9.79827 -21.4342 3.44362
RightFoot  7.15976 0.588728 -3.31024
RightToes  -1.16417e-010 0 -3.6325e-017
Spine  20.9013 0.160836 6.40239
Spine1  0.857236 3.34422 -9.90007
HEad  -16.8291 -0.923033 -3.39834
LeftShoulder1  1.15766 0.525825 -32.8093
LeftArm  1.78115 3.76428 -29.2552
LeftForeArm  -7.64614 -16.3964 -10.2034
LeftHand  0.343258 0.99863 -9.32278
RightShoulder  8.0508 12.604 43.6221
RightArm  0.0654401 -5.11874 13.0709
RightForeArm  15.6967 -4.16443 16.3601
RightHand  0.0117477 1.24497 0.0872018
LeftUpLeg  -2.72037 21.1309 19.5548
LeftLeg  25.1067 -0.055526 0.306484
LeftFoot  -2.51879 2.34815 -29.6267
LeftToes  1.03528e-008 1.55373e-010 -2.26046e-010
1496
root  -1.62892 38.326 -11.4953 11.0801 29.0591 -3.02557
RightUpLeg  -34.04 -9.89859 5.25826
RightLeg  15.0745 -17.7962 2.32875
RightFoot  3.36086 0.53909 -3.99648
RightToes  -1.16417e-010 0 -3.6325e-017
Spine  20.9231 0.428098 7.45222
Spine1  0.861491 3.16257 -6.96488
HEad  -17.797 0.172894 -2.43591
LeftShoulder1  1.13486 0.491267 -31.6082
LeftArm  7.70618 2.92379 -31.4685
LeftForeArm  -5.86701 -18.8292 -8.19146
LeftHand  0.367038 0.300971 -8.47949
RightShoulder  10.1129 15.9458 45.4296
RightArm  -3.68604 -1.83898 13.3558
RightForeArm  22.0219 -7.23271 15.8022
RightHand  0.104543 1.50012 1.62824
LeftUpLeg  -7.18981 15.3293 19.7667
LeftLeg  35.0371 3.35308 2.8795
LeftFoot  9.36507 2.72104 -15.1358
LeftToes  1.03528e-008 1.55373e-010 -2.26046e-010
1497
root  -1.3487 38.269 -10.1188 9.79395 28.7015 -3.2627
RightUpLeg  -33.0155 -9.90146 6.1487
RightLeg  20.1494 -16.9578 0.38422
RightFoot  -0.647775 0.397775 -4.29202
RightToes  -1.16417e-010 0 -3.6325e-017
Spine  21.6611 0.740726 8.70876
Spine1  -0.282664 3.19584 -4.75609
HEad  -16.6863 -0.195301 -0.680995
LeftShoulder1  1.12422 0.458009 -30.8437
LeftArm  13.5484 2.52954 -32.669
LeftForeArm  -5.66358 -20.5302 -6.84676
LeftHand  0.401902 0.083574 -8.86548
RightShoulder  10.6401 16.1302 47.4057
RightArm  -5.55166 0.432832 14.1103
RightForeArm  27.0047 -7.51433 15.1137
RightHand  -0.00259129 1.68246 -0.193422
LeftUpLeg  -11.3268 9.79947 19.226
LeftLeg  44.2548 2.53815 3.03701
LeftFoot  14.7646 1.92545 -8.68606
LeftToes  1.03528e-008 1.55373e-010 -2.26046e-010
1498
root  -0.994955 38.3944 -8.64909 8.87061 26.7903 -3.39288
RightUpLeg  -30.5643 -9.83462 7.30009
RightLeg  22.0858 -14.8745 -0.625686
RightFoot  -3.86832 0.183438 -3.20763
RightToes  -1.16417e-010 0 -3.6325e-017
Spine  21.751 1.20086 10.1903
Spine1  -1.61642 4.0386 -5.2031
HEad  -16.0865 -0.892557 0.0787339
LeftShoulder1  1.12929 0.426089 -30.6242
LeftArm  12.7278 3.82761 -33.3651
LeftForeArm  -8.36069 -21.2573 -6.43097
LeftHand  0.467296 -0.128442 -9.87295
RightShoulder  10.667 15.7834 48.3997
RightArm  -5.41284 1.14001 15.9896
RightForeArm  24.6682 -5.40336 14.8827
RightHand  -0.0313292 1.9679 -0.664773
LeftUpLeg  -14.7067 7.21421 18.14
LeftLeg  51.5364 -1.36801 -1.40635
LeftFoot  10.7535 1.78877 -9.48392
LeftToes  1.03528e-008 1.55373e-010 -2.26046e-010
1499
root  -0.566669 38.6055 -7.09797 7.89886 24.5629 -3.26074
RightUpLeg  -26.8281 -8.56892 7.30485
RightLeg  22.4225 -13.8286 -0.935613
RightFoot  -6.29729 0.0720872 -2.60319
RightToes  -1.16417e-010 0 -3.6325e-017
Spine  21.2464 1.57531 10.9058
Spine1  -2.23475 4.56625 -5.36448
HEad  -16.1031 -0.585292 -0.614985
LeftShoulder1  1.07233 0.598765 -30.8439
LeftArm  11.5849 6.21721 -33.3465
LeftForeArm  -8.73517 -20.6586 -6.89244
LeftHand  0.441744 0.233082 -10.0441
RightShoulder  10.9338 16.1322 48.7281
RightArm  0.979714 2.02186 18.3704
RightForeArm  16.7848 3.30586 15.0439
RightHand  0.0302198 2.32479 0.264675
LeftUpLeg  -17.363 5.12212 16.3324
LeftLeg  55.5413 -3.35566 -4.77419
LeftFoot  9.48606 1.88748 -10.5637
LeftToes  1.03528e-008 1.55373e-010 -2.26046e-010
1500
root  -0.115616 38.8445 -5.51843 7.06555 22.7745 -2.7478
RightUpLeg  -22.4751 -6.00844 6.21366
RightLeg  21.8005 -14.7139 -0.929741
RightFoot  -8.31829 -0.000177158 -2.12603
RightToes  -1.16417e-010 0 -3.6325e-017
Spine  20.7675 1.83898 11.3869
Spine1  -3.33904 4.77879 -5.46733
HEad  -15.0998 0.000258981 -1.49547
LeftShoulder1  1.03718 0.71052 -31.0621
LeftArm  11.7856 9.34634 -32.7021
LeftForeArm  -6.87685 -19.7397 -7.57162
LeftHand  0.429941 0.28478 -9.88493
RightShoulder  11.2598 16.5089 49.2344
RightArm  14.8614 2.84067 20.8469
RightForeArm  4.81349 13.1951 11.9233
RightHand  0.0969633 2.83184 1.15231
LeftUpLeg  -20.0677 3.20733 14.0584
LeftLeg  56.6386 -2.99465 -4.40245
LeftFoot  8.77507 1.95533 -11.2983
LeftToes  1.03528e-008 1.55373e-010 -2.26046e-010
1501
root  0.324373 39.1083 -3.92399 6.60626 20.4174 -2.03516
RightUpLeg  -17.8319 -4.30819 5.37317
RightLeg  19.6694 -14.2236 -0.26777
RightFoot  -9.6826 -0.0416965 -1.64571
RightToes  -1.16417e-010 0 -3.6325e-017
Spine  20.2076 2.60231 11.6
Spine1  -5.01498 5.40374 -6.02122
HEad  -13.173 0.304066 -2.84884
LeftShoulder1  0.990887 0.830931 -31.0006
LeftArm  12.2038 12.7918 -32.046
LeftForeArm  -6.04879 -18.7416 -8.46493
LeftHand  0.481103 -0.0837719 -10.2527
RightShoulder  11.3876 16.6932 49.3369
RightArm  26.0409 3.4014 23.1906
RightForeArm  -1.42306 20.7534 6.3205
RightHand  0.069943 3.09389 0.726981
LeftUpLeg  -22.5688 2.83776 11.6129
LeftLeg  54.7979 -1.24 -1.41749
LeftFoot  7.83419 1.77655 -10.7766
LeftToes  1.03528e-008 1.55373e-010 -2.26046e-010
1502
root  0.739503 39.3705 -2.31484 6.30054 17.4559 -1.44391
RightUpLeg  -12.8935 -3.75284 5.03697
RightLeg  16.2698 -11.9708 0.50265
RightFoot  -10.3521 -0.0588364 -1.29977
RightToes  -1.16417e-010 0 -3.6325e-017
Spine  19.0955 3.72429 11.8264
Spine1  -5.83795 6.44408 -7.0805
HEad  -11.4179 0.478928 -3.87499
LeftShoulder1  0.933205 0.971408 -30.7754
LeftArm  11.2456 15.5343 -31.3547
LeftForeArm  -4.20905 -16.8205 -10.114
LeftHand  0.490925 0.0480965 -10.7384
RightShoulder  11.769 17.397 49.2631
RightArm  24.1507 4.27783 24.7057
RightForeArm  4.95052 25.3436 5.17507
RightHand  0.049309 3.23528 0.42679
LeftUpLeg  -24.5362 3.7095 9.36085
LeftLeg  50.2867 1.3495 2.17515
LeftFoot  6.59696 1.56311 -10.1391
LeftToes  1.03528e-008 1.55373e-010 -2.26046e-010
